<?xml version="1.0" encoding="UTF-8"?>
<svg width="32px" height="24px" viewBox="0 0 32 24" version="1.1" xmlns="http://www.w3.org/2000/svg" xmlns:xlink="http://www.w3.org/1999/xlink">
    <!-- Generator: Sketch 44.1 (41455) - http://www.bohemiancoding.com/sketch -->
    <title>Protea</title>
    <desc>Created with Sketch.</desc>
    <defs>
        <polygon id="path-1" points="14.369 0.106697608 14.369 8.83667605 0.896815479 8.83667605 0.896815479 0.106697608 14.369 0.106697608"></polygon>
        <polygon id="path-3" points="0.3935 0.772 12.5025 0.772 12.5025 6.8919 0.3935 6.8919"></polygon>
    </defs>
    <g id="Page-1" stroke="none" stroke-width="1" fill="none" fill-rule="evenodd">
        <g id="Protea" transform="translate(0.000000, -1.000000)">
            <g id="Group-3" transform="translate(0.000000, 12.227900)" fill="#E78C78">
                <path d="M12.792,8.3688 C12.747,8.4678 12.614,8.4658 12.484,8.4768 C12.36,8.4888 12.166,8.4968 12.042,8.5018 C11.498,8.5208 10.954,8.4828 10.416,8.4008 C9.862,8.3148 9.35,8.2648 8.815,8.0968 C8.284,7.9288 7.765,7.7228 7.263,7.4818 C6.784,7.2528 6.319,6.9908 5.879,6.6938 C3.78,5.2788 2.395,3.3718 1.076,1.2538 C1.024,1.1708 1.151,1.1018 1.206,1.1798 C2.597,3.1318 4.532,4.9458 6.564,6.2138 C7.563,6.8378 8.394,7.2078 9.444,7.6168 C10.061,7.8568 10.683,7.9598 11.31,8.0948 C11.563,8.1488 11.993,8.1608 12.275,8.1778 C12.404,8.1858 12.574,8.1808 12.698,8.2128 C12.756,8.2278 12.81,8.2338 12.807,8.3068 C12.806,8.3288 12.801,8.3488 12.792,8.3688 M13.399,8.2348 C13.423,8.2148 13.444,8.1928 13.458,8.1668 C13.493,8.0968 13.46,8.0078 13.399,7.9598 C13.339,7.9108 13.257,7.8968 13.18,7.8988 C13.102,7.9018 13.025,7.9188 12.948,7.9238 C12.818,7.9328 12.694,7.8998 12.567,7.8808 C12.433,7.8598 12.298,7.8388 12.164,7.8158 C11.898,7.7718 11.634,7.7228 11.37,7.6668 C10.772,7.5368 10.184,7.3588 9.626,7.1038 C9.25,6.9318 8.823,6.3048 8.532,6.0028 C8.105,5.5588 7.728,5.2058 7.384,4.6828 C6.199,2.8838 3.943,1.2608 2.054,0.2768 C1.097,-0.2212 0.113,0.4348 0.025,1.4588 C-0.107,2.9938 0.275,4.7868 1.371,5.9388 C1.927,6.5228 2.583,6.7078 3.321,6.9448 C4.132,7.2058 4.88,7.6488 5.676,7.9618 C5.774,8.0008 5.874,8.0388 5.974,8.0748 C6.51,8.2698 7.06,8.4288 7.617,8.5508 C8.185,8.6738 8.761,8.7598 9.341,8.8038 C9.92,8.8478 10.503,8.8478 11.083,8.8028 C11.37,8.7788 11.657,8.7288 11.944,8.7118 C12.09,8.7028 12.259,8.7118 12.393,8.6898 C12.573,8.6628 12.74,8.6138 12.912,8.5458 C13.083,8.4778 13.232,8.3658 13.376,8.2538 C13.384,8.2468 13.392,8.2408 13.399,8.2348" id="Fill-1"></path>
            </g>
            <g id="Group-6" transform="translate(17.000000, 12.227900)">
                <mask id="mask-2" fill="white">
                    <use xlink:href="#path-1"></use>
                </mask>
                <g id="Clip-5"></g>
                <path d="M1.5771,8.3688 C1.6221,8.4678 1.7551,8.4658 1.8851,8.4768 C2.0091,8.4888 2.2031,8.4968 2.3271,8.5018 C2.8711,8.5208 3.4151,8.4828 3.9531,8.4008 C4.5071,8.3148 5.0191,8.2648 5.5541,8.0968 C6.0851,7.9288 6.6041,7.7228 7.1061,7.4818 C7.5851,7.2528 8.0501,6.9908 8.4901,6.6938 C10.5891,5.2788 11.9741,3.3718 13.2931,1.2538 C13.3451,1.1708 13.2181,1.1018 13.1631,1.1798 C11.7721,3.1318 9.8371,4.9458 7.8051,6.2138 C6.8061,6.8378 5.9751,7.2078 4.9251,7.6168 C4.3081,7.8568 3.6861,7.9598 3.0591,8.0948 C2.8061,8.1488 2.3761,8.1608 2.0941,8.1778 C1.9651,8.1858 1.7961,8.1808 1.6711,8.2128 C1.6131,8.2278 1.5591,8.2338 1.5621,8.3068 C1.5631,8.3288 1.5681,8.3488 1.5771,8.3688 M0.9701,8.2348 C0.9461,8.2148 0.9251,8.1928 0.9111,8.1668 C0.8761,8.0968 0.9091,8.0078 0.9701,7.9598 C1.0301,7.9108 1.1121,7.8968 1.1891,7.8988 C1.2671,7.9018 1.3441,7.9188 1.4211,7.9238 C1.5511,7.9328 1.6751,7.8998 1.8021,7.8808 C1.9361,7.8598 2.0711,7.8388 2.2051,7.8158 C2.4711,7.7718 2.7351,7.7228 2.9991,7.6668 C3.5971,7.5368 4.1851,7.3588 4.7431,7.1038 C5.1191,6.9318 5.5461,6.3048 5.8371,6.0028 C6.2641,5.5588 6.6411,5.2058 6.9851,4.6828 C8.1701,2.8838 10.4261,1.2608 12.3151,0.2768 C13.2721,-0.2212 14.2561,0.4348 14.3441,1.4588 C14.4761,2.9938 14.0941,4.7868 12.9981,5.9388 C12.4421,6.5228 11.7861,6.7078 11.0481,6.9448 C10.2371,7.2058 9.4891,7.6488 8.6931,7.9618 C8.5951,8.0008 8.4951,8.0388 8.3951,8.0748 C7.8591,8.2698 7.3091,8.4288 6.7521,8.5508 C6.1841,8.6738 5.6081,8.7598 5.0281,8.8038 C4.4491,8.8478 3.8661,8.8478 3.2861,8.8028 C2.9991,8.7788 2.7121,8.7288 2.4251,8.7118 C2.2791,8.7028 2.1101,8.7118 1.9761,8.6898 C1.7961,8.6628 1.6291,8.6138 1.4571,8.5458 C1.2861,8.4778 1.1371,8.3658 0.9931,8.2538 C0.9851,8.2468 0.9771,8.2408 0.9701,8.2348" id="Fill-4" fill="#E78C78" mask="url(#mask-2)"></path>
            </g>
            <path d="M15.9307,22.4063 C16.3657,21.5053 16.4577,20.4833 16.5417,19.4863 C16.5657,19.2043 16.6437,18.9293 16.3087,18.7893 C16.1287,18.7153 15.9247,18.7323 15.7327,18.7583 C15.5877,18.7763 15.4217,18.8143 15.3577,18.9453 C15.3137,19.0343 15.3307,19.1393 15.3497,19.2363 C15.4707,19.8713 15.5897,20.5173 15.5127,21.1583 C15.3607,22.4253 14.2837,23.0083 13.2297,23.4773 C13.1307,23.5213 13.0267,23.5703 12.9677,23.6623 C12.8927,23.7783 12.9137,23.9323 12.9637,24.0623 C12.9817,24.1103 13.0047,24.1593 13.0457,24.1893 C13.0977,24.2283 13.1687,24.2303 13.2347,24.2263 C14.3987,24.1633 15.4257,23.4523 15.9307,22.4063" id="Fill-7" fill="#E78C78"></path>
            <path d="M19.6309,16.3418 C19.1479,17.1008 18.1059,17.6698 16.5319,18.0388 C16.7859,17.7408 17.0169,17.4378 17.2429,17.1408 C17.9569,16.2018 18.6349,15.3128 19.9059,14.7708 C20.0129,15.3708 19.9219,15.8868 19.6309,16.3418" id="Fill-9" fill="#E78C78"></path>
            <path d="M11.792,14.7823 C13.648,15.5083 14.055,15.7453 15.37,18.0423 C12.956,17.2763 11.651,16.0893 11.792,14.7823" id="Fill-11" fill="#E78C78"></path>
            <path d="M16.7715,16.7823 C17.0715,16.3883 17.3755,15.9913 17.7265,15.6163 C17.8875,14.9973 17.9125,14.3643 17.7315,13.7983 C16.0335,14.9963 15.5575,16.0553 15.9525,17.8023 C16.2485,17.4693 16.5135,17.1213 16.7715,16.7823" id="Fill-13" fill="#E78C78"></path>
            <path d="M15.3555,16.8604 C15.3375,16.2244 15.4615,15.6664 15.7525,15.1454 C15.4965,14.6574 15.0725,14.2014 14.4605,13.7174 C14.2535,14.2804 14.2095,14.8874 14.2825,15.4784 C14.6395,15.8144 14.9675,16.2424 15.3555,16.8604" id="Fill-15" fill="#E78C78"></path>
            <path d="M11.2666,14.3682 C11.2906,14.2702 11.3576,14.1872 11.4476,14.1402 C11.5426,14.0952 11.6446,14.0902 11.7376,14.1252 C12.4246,14.3922 12.9436,14.6032 13.3756,14.8372 C12.1546,12.2572 11.4796,11.8612 8.7466,10.7342 C8.4516,11.6952 8.5146,12.5992 8.9376,13.4252 C9.3646,14.2592 10.1686,15.0102 11.2946,15.6622 C11.1686,15.2472 11.1526,14.8142 11.2666,14.3682" id="Fill-17" fill="#E78C78"></path>
            <path d="M8.2695,10.2949 C8.3045,10.2039 8.3735,10.1309 8.4605,10.0929 C8.5445,10.0539 8.6475,10.0519 8.7385,10.0899 C9.9145,10.5729 10.7475,10.9279 11.4035,11.3359 C11.4085,11.2469 11.4105,11.1579 11.4185,11.0699 C10.4045,9.1529 9.1555,7.3699 6.8645,5.8859 C6.1495,7.4889 6.0595,9.0079 6.5985,10.4039 C6.8875,11.1539 7.3775,11.8799 8.0355,12.5819 C7.9045,11.8539 7.9795,11.0889 8.2695,10.2949" id="Fill-19" fill="#E78C78"></path>
            <path d="M13.7939,13.501 C13.7839,12.985 13.8459,12.461 13.9639,11.927 C13.9939,11.779 14.0269,11.632 14.0699,11.483 C14.0789,11.453 14.0909,11.423 14.0999,11.392 C14.1419,11.257 14.1789,11.122 14.2309,10.985 C13.8699,10.286 13.3639,9.565 12.6679,8.763 C12.1369,9.595 11.8769,10.602 11.8579,11.649 C12.5949,12.216 13.1069,12.943 13.7279,14.202 C13.7509,14.072 13.7799,13.944 13.8139,13.816 C13.8019,13.672 13.7939,13.531 13.7939,13.501" id="Fill-21" fill="#E78C78"></path>
            <path d="M18.2744,9.2364 C18.1124,7.4774 17.1734,5.8824 15.4224,4.1194 C14.4414,5.4374 13.7414,7.0444 13.4004,8.7124 C13.8544,9.2584 14.2254,9.7754 14.5274,10.2784 C14.8804,9.4894 15.3554,8.6754 15.9784,7.8274 C16.0234,7.7654 16.0964,7.7294 16.1734,7.7324 C16.2504,7.7354 16.3204,7.7754 16.3624,7.8404 C16.8394,8.5984 17.1864,9.4494 17.4154,10.3394 C17.6694,9.9444 17.9574,9.5744 18.2744,9.2364" id="Fill-23" fill="#E78C78"></path>
            <path d="M22.6123,10.5117 C21.5743,11.1757 20.8453,11.9617 20.2483,12.8157 C20.2003,13.2607 20.1023,13.6927 19.9463,14.1177 C19.9503,14.1167 19.9533,14.1157 19.9563,14.1147 C20.0463,14.0787 20.1513,14.0857 20.2423,14.1327 C20.3243,14.1747 20.3953,14.2597 20.4213,14.3577 C20.5493,14.8477 20.5703,15.3067 20.4923,15.7317 C22.5123,14.2837 23.2123,12.5587 22.6123,10.5117" id="Fill-25" fill="#E78C78"></path>
            <path d="M22.5654,9.8448 C22.6574,9.7888 22.7684,9.7788 22.8694,9.8178 C22.9684,9.8538 23.0444,9.9328 23.0804,10.0328 L23.0814,10.0328 C23.2994,10.6648 23.4084,11.2718 23.4114,11.8538 C24.5134,10.1078 24.5174,8.3548 24.2544,6.3328 L24.0644,6.4488 C22.5754,7.3638 21.1994,8.2218 19.9634,10.0428 C20.1344,10.6668 20.2354,11.2468 20.2684,11.7998 C20.8634,11.0818 21.5914,10.4208 22.5654,9.8448" id="Fill-27" fill="#E78C78"></path>
            <path d="M13.1309,7.3897 C12.4459,6.4057 11.5959,5.5257 10.5929,4.8337 C10.2259,5.8667 9.9839,6.7957 9.8459,7.6647 C10.5029,8.4087 11.0369,9.1897 11.5079,9.9977 C11.6859,9.3327 11.9609,8.7077 12.3599,8.1647 C12.4239,8.0787 12.5229,8.0267 12.6289,8.0217 C12.7459,8.0227 12.8439,8.0657 12.9099,8.1407 C12.9139,8.1457 12.9179,8.1497 12.9219,8.1547 C12.9839,7.8977 13.0539,7.6417 13.1309,7.3897" id="Fill-29" fill="#E78C78"></path>
            <path d="M19.7432,9.333 C20.3142,8.559 20.9102,7.962 21.5232,7.461 C21.4722,6.432 21.2352,5.433 20.7752,4.526 C19.7062,5.092 18.9012,5.963 18.2942,7.017 C18.5512,7.573 18.7262,8.136 18.8222,8.712 C18.8732,8.665 18.9232,8.617 18.9762,8.574 C19.0662,8.502 19.1842,8.478 19.2942,8.509 C19.4012,8.538 19.4902,8.618 19.5302,8.725 C19.6092,8.934 19.6772,9.134 19.7432,9.333" id="Fill-31" fill="#E78C78"></path>
            <path d="M17.7168,13.1094 L17.7168,13.1094 C17.7528,13.0944 17.7878,13.0844 17.8248,13.0824 C17.8658,13.0774 17.9058,13.0784 17.9458,13.0904 C18.0438,13.1204 18.1268,13.1904 18.1688,13.2864 C18.2268,13.4154 18.2758,13.5474 18.3158,13.6834 C18.3298,13.7314 18.3368,13.7824 18.3488,13.8314 C18.3708,13.9194 18.3948,14.0064 18.4088,14.0964 C18.4188,14.1554 18.4208,14.2154 18.4278,14.2754 C18.4378,14.3574 18.4488,14.4384 18.4528,14.5214 C18.4558,14.5834 18.4518,14.6444 18.4518,14.7064 C18.4518,14.7874 18.4548,14.8664 18.4498,14.9474 C18.6478,14.7934 18.8628,14.6484 19.0968,14.5144 C19.8848,12.9544 19.8558,11.3924 19.0928,9.2524 C18.4868,9.7964 17.9878,10.4634 17.5978,11.1914 C17.6998,11.8224 17.7428,12.4654 17.7168,13.1094" id="Fill-33" fill="#E78C78"></path>
            <path d="M14.3369,12.9951 C14.3759,12.9921 14.4139,12.9921 14.4519,13.0031 C14.4939,13.0121 14.5349,13.0281 14.5719,13.0571 C15.0159,13.3881 15.3779,13.7101 15.6759,14.0361 C15.7049,14.0681 15.7389,14.0991 15.7669,14.1321 C15.8709,14.2521 15.9649,14.3721 16.0499,14.4941 C16.1779,14.3431 16.3259,14.1941 16.4839,14.0461 C16.5129,14.0201 16.5409,13.9941 16.5699,13.9681 C16.7319,13.8221 16.9039,13.6771 17.0969,13.5311 L17.0979,13.5301 C17.2869,11.9321 16.9689,10.1911 16.0659,8.7551 C14.8929,10.3531 14.3419,11.6341 14.3359,12.9951 L14.3369,12.9951 Z" id="Fill-35" fill="#E78C78"></path>
            <path d="M22.0771,7.0362 C22.1411,6.9892 22.2071,6.9492 22.2721,6.9032 C22.2441,6.5512 22.2511,6.1862 22.1971,5.8272 C22.1961,5.8242 22.2091,5.8202 22.2101,5.8232 C22.3461,6.1132 22.4521,6.4202 22.5221,6.7332 C22.6581,6.6422 22.7931,6.5462 22.9301,6.4592 C22.6101,5.9312 22.1571,5.4092 21.5721,4.8782 C21.8401,5.5662 22.0071,6.2922 22.0771,7.0362" id="Fill-37" fill="#E78C78"></path>
            <g id="Group-41" transform="translate(8.000000, 0.227900)">
                <mask id="mask-4" fill="white">
                    <use xlink:href="#path-3"></use>
                </mask>
                <g id="Clip-40"></g>
                <path d="M4.1875,3.1139 C4.1885,3.1119 4.1995,3.1199 4.1985,3.1219 C4.0175,3.4719 4.0535,3.8479 4.0145,4.1669 C4.0085,4.2069 3.7355,4.2119 3.7325,4.1609 C3.7035,3.7619 3.8955,3.3629 4.1875,3.1139 M5.0285,2.8869 C5.0285,2.8869 5.0335,2.8909 5.0475,2.8929 C5.0705,2.8959 5.0675,2.8939 5.0685,2.8979 L5.0745,2.9099 L5.0935,2.9529 C5.1225,3.0119 5.1505,3.0709 5.1775,3.1279 C5.2335,3.2469 5.2875,3.3689 5.3285,3.5019 C5.4115,3.7619 5.4355,4.0819 5.2875,4.3579 C5.2465,4.4289 5.0135,4.2819 5.0325,4.2379 C5.1055,4.0439 5.1275,3.8099 5.1075,3.5569 C5.0985,3.4299 5.0795,3.3009 5.0585,3.1699 C5.0485,3.1029 5.0385,3.0379 5.0285,2.9739 C5.0245,2.9419 5.0155,2.9049 5.0245,2.8899 C5.0255,2.8859 5.0285,2.8869 5.0285,2.8869 C5.0325,2.8909 5.0175,2.8779 5.0165,2.8779 C5.0255,2.8849 5.0285,2.8869 5.0285,2.8869 M6.0265,2.0879 L6.0375,2.0949 C5.9465,2.3789 5.9125,2.6209 5.8505,2.8699 C5.8425,2.8999 5.5525,2.9529 5.5515,2.9109 C5.5475,2.5749 5.8235,2.2659 6.0265,2.0879 M4.8345,5.2769 C4.8355,5.3219 4.5645,5.3549 4.5545,5.3109 C4.4785,4.9649 4.5865,4.5929 4.6165,4.2329 C4.6165,4.2309 4.6285,4.2289 4.6295,4.2309 C4.7425,4.5729 4.8275,4.9219 4.8345,5.2769 M6.0925,3.0919 C6.0935,3.0899 6.1045,3.0959 6.1045,3.0969 C6.0775,3.2139 6.2655,3.2979 6.3525,3.5409 C6.3935,3.6849 6.3425,3.8059 6.3345,3.8699 C6.3205,3.9229 6.3445,3.9619 6.3345,3.9599 C6.3235,3.9579 6.3225,4.2389 6.2175,4.2159 C6.0285,4.1269 6.0175,3.9349 6.0495,3.8199 C6.0835,3.7089 6.1255,3.6539 6.1305,3.5929 C6.1365,3.5219 6.1035,3.4269 6.0775,3.3359 C6.0475,3.2459 6.0375,3.1379 6.0925,3.0919 M7.4625,1.1409 C7.5675,1.4109 7.5975,1.7199 7.5035,1.9979 C7.4925,2.0339 7.2245,1.9729 7.2275,1.9419 C7.2465,1.6869 7.4105,1.4359 7.4495,1.1429 C7.4505,1.1409 7.4625,1.1399 7.4625,1.1409 M6.8105,3.1389 C6.7845,2.8289 6.9435,2.5199 7.0225,2.2119 C7.0225,2.2099 7.0355,2.2099 7.0365,2.2119 C7.0995,2.5229 7.1345,2.8359 7.0925,3.1449 C7.0875,3.1839 6.8145,3.1779 6.8105,3.1389 M8.0975,1.6939 C8.0915,2.1919 7.9855,2.7039 7.7475,3.1469 C7.7165,3.2039 7.4685,3.0879 7.4895,3.0319 C7.6525,2.5889 7.9355,2.1739 8.0835,1.6919 C8.0845,1.6889 8.0975,1.6909 8.0975,1.6939 M8.9645,1.9609 C8.9495,2.3959 8.9725,2.8169 8.9805,3.2389 C8.9815,3.2919 8.7095,3.3249 8.7005,3.2679 C8.6195,2.8169 8.7945,2.3599 8.9515,1.9579 C8.9525,1.9559 8.9645,1.9579 8.9645,1.9609 M9.7715,3.1139 C9.8375,3.3079 9.8975,3.5049 9.9445,3.7029 C9.9905,3.8979 10.0325,4.1229 9.9735,4.3539 C9.9575,4.4149 9.6925,4.3429 9.6955,4.3039 C9.7095,4.1379 9.7095,3.9479 9.7195,3.7389 C9.7305,3.5309 9.7535,3.3219 9.7575,3.1169 C9.7575,3.1139 9.7705,3.1119 9.7715,3.1139 M10.3915,2.7759 C10.6245,3.2219 10.8315,3.6809 10.9625,4.1629 C10.9795,4.2229 10.7215,4.3149 10.6975,4.2579 C10.4995,3.7979 10.4765,3.2739 10.3785,2.7809 C10.3775,2.7779 10.3905,2.7739 10.3915,2.7759 M9.9395,5.5909 C9.8875,5.3249 10.0355,5.0279 10.0975,4.7459 C10.0975,4.7439 10.1115,4.7419 10.1125,4.7439 C10.2035,5.0029 10.2635,5.2679 10.2425,5.5449 C10.2395,5.5799 9.9455,5.6239 9.9395,5.5909 M0.9425,6.5219 C0.9555,6.4619 0.9705,6.4039 0.9875,6.3479 C1.0545,6.1169 1.1435,5.8929 1.1405,5.6429 C1.1405,5.6399 1.1535,5.6379 1.1545,5.6409 C1.2695,6.0349 1.1995,6.4279 1.2065,6.7719 C1.2485,6.8119 1.2925,6.8509 1.3335,6.8919 C1.5035,6.0329 1.7715,5.1169 2.1385,4.1179 C2.1775,4.0159 2.2565,3.9379 2.3595,3.9039 C2.4615,3.8689 2.5705,3.8819 2.6645,3.9429 C2.7715,4.0119 2.8715,4.0929 2.9755,4.1659 C2.9815,4.0899 2.9865,4.0129 2.9905,3.9389 C2.9905,3.9359 3.0025,3.9349 3.0035,3.9379 C3.0305,4.0389 3.0545,4.1389 3.0805,4.2399 C3.9555,4.8679 4.7255,5.6239 5.3665,6.4739 C5.4455,6.2629 5.5355,6.0569 5.6245,5.8519 C5.5855,5.5419 5.7155,5.1849 5.7675,4.8519 C5.7675,4.8499 5.7855,4.8449 5.7865,4.8469 C5.8375,4.9729 5.8805,5.1009 5.9175,5.2309 C6.2615,4.5469 6.6605,3.8969 7.1205,3.3119 C7.1825,3.2329 7.2765,3.1839 7.3765,3.1779 C7.4585,3.1629 7.5645,3.1989 7.6465,3.2789 C7.8435,3.4719 8.0235,3.6629 8.2025,3.8519 C8.2435,3.7179 8.2915,3.5829 8.3235,3.4489 C8.3235,3.4469 8.3365,3.4469 8.3365,3.4489 C8.3875,3.6579 8.4115,3.8689 8.4165,4.0799 C8.5965,4.2779 8.7665,4.4749 8.9265,4.6719 C8.9965,4.3899 9.0775,4.1069 9.1195,3.8149 C9.1195,3.8119 9.1315,3.8119 9.1325,3.8149 C9.1875,4.1939 9.2015,4.5829 9.1545,4.9649 C9.4655,5.3679 9.7445,5.7679 9.9725,6.1679 C10.3955,5.5029 10.9025,4.9129 11.5075,4.4259 C11.5165,4.1509 11.5425,3.8599 11.4655,3.5649 C11.4645,3.5619 11.4765,3.5569 11.4775,3.5589 C11.6205,3.7559 11.7175,3.9899 11.7655,4.2349 C11.9975,4.0669 12.2435,3.9149 12.5025,3.7769 C11.2625,2.8589 9.6175,1.8849 7.4855,0.7719 C4.4565,2.4119 1.6665,3.7709 0.3935,6.0459 C0.5845,6.2029 0.7675,6.3609 0.9425,6.5219" id="Fill-39" fill="#E78C78" mask="url(#mask-4)"></path>
            </g>
        </g>
    </g>
</svg>